<?xml version="1.0" standalone="no"?>
<!DOCTYPE svg PUBLIC "-//W3C//DTD SVG 20010904//EN"
 "http://www.w3.org/TR/2001/REC-SVG-20010904/DTD/svg10.dtd">
<svg version="1.0" xmlns="http://www.w3.org/2000/svg"
 width="1029.000000pt" height="1280.000000pt" viewBox="0 0 1029.000000 1280.000000"
 preserveAspectRatio="xMidYMid meet">
<g transform="translate(0.000000,1280.000000) scale(0.100000,-0.100000)"
fill="#000000" stroke="none">
<path d="M4295 12788 c-213 -53 -289 -92 -410 -213 -104 -103 -162 -202 -196
-332 -27 -106 -27 -260 1 -367 55 -214 220 -404 430 -491 36 -15 69 -29 74
-32 29 -18 -67 -23 -460 -23 -484 0 -541 -5 -706 -60 -184 -62 -347 -163 -506
-314 -350 -334 -551 -794 -592 -1356 -8 -100 -10 -871 -8 -2465 4 -2138 5
-2329 21 -2435 110 -726 506 -1290 1052 -1495 35 -14 60 -29 60 -37 0 -8 -666
-705 -1480 -1548 -814 -844 -1498 -1554 -1520 -1578 l-39 -45 54 7 c30 5 281
15 558 25 l503 16 77 82 c42 46 271 283 507 528 l430 445 250 0 c138 0 1298 5
2580 10 1282 5 2514 10 2740 10 l410 1 514 -533 c282 -293 523 -536 535 -539
11 -4 215 -12 451 -19 237 -6 477 -15 534 -20 58 -6 106 -8 108 -6 2 2 -677
709 -1509 1571 -832 862 -1517 1574 -1521 1581 -5 10 -1 17 15 24 13 5 65 27
117 49 460 195 824 675 955 1263 63 283 59 122 63 2588 4 2323 1 2542 -36
2755 -119 683 -513 1228 -1026 1419 -187 69 -183 69 -722 75 -427 5 -522 10
-502 24 2 2 35 16 74 32 202 84 349 241 422 450 25 73 27 93 27 225 0 131 -2
153 -27 225 -66 197 -220 367 -403 445 -63 27 -242 70 -293 70 -73 0 -224 -41
-316 -85 -153 -74 -264 -183 -335 -330 -57 -119 -74 -191 -74 -325 0 -136 17
-207 77 -330 34 -70 58 -102 136 -180 94 -94 151 -131 296 -190 28 -11 28 -13
10 -21 -29 -11 -1077 -11 -1095 1 -11 7 -6 13 25 25 101 42 131 58 190 100
195 139 306 353 307 595 1 211 -74 385 -231 533 -112 104 -201 148 -404 196
-56 13 -136 12 -192 -1z m2139 -9914 c135 -141 246 -262 246 -270 0 -12 -66
-14 -413 -14 -228 0 -921 -3 -1540 -7 -998 -6 -1127 -5 -1127 9 0 8 113 132
251 276 l252 262 1042 0 1042 0 247 -256z m850 -882 c175 -178 202 -210 190
-222 -14 -12 -4671 -24 -4678 -11 -4 6 75 94 175 196 l182 185 1206 3 c663 1
1558 3 1988 5 l782 2 155 -158z"/>
</g>
</svg>
